<svg xmlns="http://www.w3.org/2000/svg" xmlns:xlink="http://www.w3.org/1999/xlink" viewBox="0,0,256,256" width="128px" height="128px"><g fill="#ffea79" fill-rule="nonzero" stroke="none" stroke-width="1" stroke-linecap="butt" stroke-linejoin="miter" stroke-miterlimit="10" stroke-dasharray="" stroke-dashoffset="0" font-family="none" font-weight="none" font-size="none" text-anchor="none" style="mix-blend-mode: normal"><g transform="scale(2,2)"><path d="M15,109.8l48,17v0c0.1,0 0.2,0.1 0.3,0.1c0.2,0.1 0.5,0.1 0.7,0.1c0.2,0 0.3,0 0.5,0v0c0,0 0,0 0.1,0c0.1,0 0.3,-0.1 0.4,-0.1v0l48,-17c1.2,-0.4 2,-1.6 2,-2.8v-33.7l10,-3.5c0.8,-0.3 1.5,-1 1.8,-1.8c0.3,-0.8 0.2,-1.8 -0.3,-2.6l-12,-20l-0.1,-0.1c0,-0.1 -0.1,-0.1 -0.1,-0.2v0c0,-0.1 -0.1,-0.1 -0.1,-0.2c0,0 0,0 0,-0.1c-0.1,-0.1 -0.1,-0.1 -0.2,-0.2l-0.1,-0.1l-0.1,-0.1h-0.1l-0.1,-0.1c-0.1,-0.1 -0.2,-0.1 -0.3,-0.1c-0.1,0 -0.1,-0.1 -0.2,-0.1v0v0l-48,-17c0,0 0,0 -0.1,0h-0.1h-0.1c-0.1,0 -0.1,0 -0.2,0v0v0c-0.1,0 -0.1,0 -0.2,0c-0.1,0 -0.1,0 -0.2,0c-0.1,0 -0.2,0 -0.4,0c-0.1,0 -0.1,0 -0.2,0c-0.2,0 -0.4,0.1 -0.5,0.1l-48,17c-0.2,0.1 -0.3,0.1 -0.5,0.2l-0.1,0.1c-0.1,0.1 -0.2,0.1 -0.3,0.2l-0.1,0.1c-0.1,0.1 -0.2,0.1 -0.2,0.2l-0.1,0.1c-0.1,0.1 -0.1,0.2 -0.2,0.2c0,0 0,0.1 -0.1,0.1l-12,20c-0.7,1.1 -0.6,2.5 0.2,3.4c0.6,0.7 1.4,1.1 2.3,1.1c0.3,0 0.7,-0.1 1,-0.2l8,-2.8v40c0,1.3 0.8,2.4 2,2.8zM119.5,65.4l-42.2,15l-8.9,-14.8l42.2,-15zM67,34.2l36,12.8l-36,12.8zM67,74.8l6.4,10.7c0.6,1 1.6,1.5 2.6,1.5c0.3,0 0.7,-0.1 1,-0.2l32,-11.3v29.4l-42,14.9zM19,51.2l42,14.9v53.6l-42,-14.9z"></path></g></g></svg>